<svg width="189" height="38" viewBox="0 0 189 38" fill="none" xmlns="http://www.w3.org/2000/svg">
<rect width="188.083" height="37.0208" rx="18.5104" fill="#1EDC82"/>
<path d="M42.8211 21.2396H44.2845C46.2154 21.2396 47.6313 20.0947 47.6313 18.0961V12.0258H45.9579V18.0012C45.9579 19.0649 45.294 19.7288 44.2913 19.7288H42.8211V21.2396ZM56.1474 17.6354C56.1474 15.7181 54.7382 14.065 52.638 14.065C50.5445 14.065 49.027 15.7249 49.027 17.7573C49.027 19.7898 50.5445 21.4496 52.638 21.4496C54.3724 21.4496 55.6122 20.3047 55.9645 19.0513H54.1759C53.9388 19.6407 53.4306 19.9863 52.6041 19.9863C51.6421 19.9863 50.8426 19.3291 50.6733 18.1909H56.1135C56.1406 17.9335 56.1474 17.8115 56.1474 17.6354ZM50.741 16.924C51.0188 15.9417 51.8047 15.4945 52.6312 15.4945C53.5932 15.4945 54.4062 16.1449 54.474 16.924H50.741ZM60.2191 21.2396H61.635V19.8779H60.5578C60.0362 19.8779 59.5484 19.6407 59.5484 18.6652V15.6842H61.635V14.275H59.5484V12.2222L57.9089 12.2358V14.275H56.4658V15.6842H57.9089V18.5906C57.9089 20.8873 59.169 21.2396 60.2191 21.2396ZM62.4277 21.2396H68.4303V19.8575H64.6838L68.2677 15.3048V14.275H62.6106V15.6571H66.0387L62.4277 20.2234V21.2396ZM72.5765 21.2396H73.9925V19.8779H72.9153C72.3936 19.8779 71.9058 19.6407 71.9058 18.6652V15.6842H73.9925V14.275H71.9058V12.2222L70.2663 12.2358V14.275H68.8232V15.6842H70.2663V18.5906C70.2663 20.8873 71.5264 21.2396 72.5765 21.2396ZM85.3337 17.6354C85.3337 15.7181 83.9245 14.065 81.8243 14.065C79.7308 14.065 78.2132 15.7249 78.2132 17.7573C78.2132 19.7898 79.7308 21.4496 81.8243 21.4496C83.5586 21.4496 84.7984 20.3047 85.1507 19.0513H83.3622C83.125 19.6407 82.6169 19.9863 81.7904 19.9863C80.8283 19.9863 80.0289 19.3291 79.8595 18.1909H85.2998C85.3269 17.9335 85.3337 17.8115 85.3337 17.6354ZM79.9273 16.924C80.2051 15.9417 80.9909 15.4945 81.8175 15.4945C82.7795 15.4945 83.5925 16.1449 83.6603 16.924H79.9273ZM86.6751 21.2396H88.3146V17.6828C88.3146 16.321 89.1954 15.5758 90.1574 15.5758C91.1465 15.5758 91.7698 16.1381 91.7698 17.5202V21.2396H93.4093V17.4863C93.4093 15.298 92.4812 14.065 90.6113 14.065C89.5409 14.065 88.633 14.6002 88.2333 15.359V14.275H86.6751V21.2396ZM97.9959 21.2396H99.4119V19.8779H98.3347C97.813 19.8779 97.3252 19.6407 97.3252 18.6652V15.6842H99.4119V14.275H97.3252V12.2222L95.6857 12.2358V14.275H94.2427V15.6842H95.6857V18.5906C95.6857 20.8873 96.9458 21.2396 97.9959 21.2396ZM103.423 21.4496C104.588 21.4496 105.421 20.7993 105.835 20.0676V21.2396H107.393V11.7006H105.76V14.6883L105.794 15.4132C105.428 14.756 104.581 14.065 103.443 14.065C101.41 14.065 100.056 15.7249 100.056 17.7573C100.056 19.8033 101.444 21.4496 103.423 21.4496ZM103.721 19.9388C102.522 19.9388 101.668 18.9904 101.668 17.7573C101.668 16.4904 102.562 15.5826 103.721 15.5826C104.872 15.5826 105.774 16.5378 105.774 17.7573C105.774 18.9904 104.866 19.9388 103.721 19.9388ZM115.943 17.6354C115.943 15.7181 114.533 14.065 112.433 14.065C110.34 14.065 108.822 15.7249 108.822 17.7573C108.822 19.7898 110.34 21.4496 112.433 21.4496C114.168 21.4496 115.407 20.3047 115.76 19.0513H113.971C113.734 19.6407 113.226 19.9863 112.399 19.9863C111.437 19.9863 110.638 19.3291 110.469 18.1909H115.909C115.936 17.9335 115.943 17.8115 115.943 17.6354ZM110.536 16.924C110.814 15.9417 111.6 15.4945 112.426 15.4945C113.389 15.4945 114.202 16.1449 114.269 16.924H110.536ZM120.387 21.4496C122.176 21.4496 123.49 20.3047 123.849 18.6923H122.182C121.877 19.5594 121.186 19.9321 120.394 19.9321C119.391 19.9321 118.416 19.1326 118.416 17.7573C118.416 16.3888 119.384 15.5894 120.394 15.5894C121.186 15.5894 121.871 15.962 122.182 16.7343H123.856C123.463 15.2032 122.182 14.065 120.387 14.065C118.307 14.065 116.79 15.7316 116.79 17.7573C116.79 19.7898 118.307 21.4496 120.387 21.4496ZM129.73 21.2396H131.572L129.113 17.0324L131.274 14.275H129.276L126.823 17.5405V11.7006H125.184V21.2396H126.823V19.302L127.921 18.1028L129.73 21.2396ZM138.855 17.6354C138.855 15.7181 137.446 14.065 135.346 14.065C133.253 14.065 131.735 15.7249 131.735 17.7573C131.735 19.7898 133.253 21.4496 135.346 21.4496C137.08 21.4496 138.32 20.3047 138.672 19.0513H136.884C136.647 19.6407 136.139 19.9863 135.312 19.9863C134.35 19.9863 133.551 19.3291 133.381 18.1909H138.822C138.849 17.9335 138.855 17.8115 138.855 17.6354ZM133.449 16.924C133.727 15.9417 134.513 15.4945 135.339 15.4945C136.301 15.4945 137.114 16.1449 137.182 16.924H133.449ZM140.197 21.2396H141.836V17.6828C141.836 16.321 142.717 15.5758 143.679 15.5758C144.668 15.5758 145.292 16.1381 145.292 17.5202V21.2396H146.931V17.4863C146.931 15.298 146.003 14.065 144.133 14.065C143.063 14.065 142.155 14.6002 141.755 15.359V14.275H140.197V21.2396Z" fill="#161528"/>
<rect width="188.083" height="37.0208" rx="18.5104" stroke="#28282D"/>
</svg>
