<svg width="1137" height="930" viewBox="0 0 1137 930" fill="none" xmlns="http://www.w3.org/2000/svg">
<g filter="url(#filter0_f_1_242)">
<path d="M765.59 269.822L765.625 269.806L765.659 269.788L765.754 269.74C873.732 221.875 1000.01 270.428 1047.81 378.197C1095.61 485.976 1046.79 612.2 938.803 660.092L741.897 747.421L349.409 921.488L175.695 529.799L88.5813 333.334L88.5656 333.298L88.5482 333.264L88.5278 333.224C40.7538 225.451 89.5522 99.267 197.541 51.3739C305.544 3.47464 431.85 52.028 479.65 159.808L566.812 356.339L567.42 357.71L568.791 357.102L765.59 269.822Z" stroke="#1EDC82" stroke-width="3"/>
</g>
<path d="M765.387 269.364L765.41 269.354L765.433 269.342L765.54 269.288C873.772 221.303 1000.35 269.968 1048.26 377.994C1096.18 486.027 1047.24 612.546 939.006 660.549L742.1 747.878L349.155 922.148L175.238 530.001L88.1242 333.536L88.1138 333.513L88.1021 333.49L88.0763 333.439C40.1806 225.41 89.0937 98.9234 197.338 50.9169C305.593 2.906 432.195 51.572 480.108 159.606L567.269 356.136L567.674 357.05L568.588 356.645L765.387 269.364Z" stroke="#1EDC82" stroke-width="2"/>
<defs>
<filter id="filter0_f_1_242" x="62.6914" y="25.418" width="1010.96" height="904.049" filterUnits="userSpaceOnUse" color-interpolation-filters="sRGB">
<feFlood flood-opacity="0" result="BackgroundImageFix"/>
<feBlend mode="normal" in="SourceGraphic" in2="BackgroundImageFix" result="shape"/>
<feGaussianBlur stdDeviation="3" result="effect1_foregroundBlur_1_242"/>
</filter>
</defs>
</svg>
