<svg width="24" height="24" viewBox="0 0 24 24" fill="none" xmlns="http://www.w3.org/2000/svg">
<g clip-path="url(#clip0_1_109)">
<path d="M1.04907e-06 12C1.62868e-06 5.37005 5.37005 -1.62868e-06 12 -1.04907e-06C18.63 -4.69465e-07 24 5.37005 24 12C24 18.6299 18.6299 24 12 24C5.37005 24 4.69465e-07 18.6299 1.04907e-06 12ZM9.74871 13.5491L18.5886 13.5491C19.2289 13.5491 19.7453 13.0327 19.7453 12.3924L19.7453 11.6076C19.7453 10.9673 19.2289 10.4509 18.5886 10.4509L9.74871 10.4509L13.4045 6.93976C13.8795 6.48537 13.8795 5.74182 13.4045 5.28743L12.8675 4.75043C12.4131 4.29604 11.6695 4.29604 11.2358 4.75043L4.81239 11.1738C4.358 11.6282 4.358 12.3718 4.81239 12.8055L11.2358 19.2289C11.6902 19.6833 12.4337 19.6833 12.8675 19.2289L13.4045 18.6919C13.8589 18.2375 13.8589 17.4733 13.4045 17.0189L9.74871 13.5077L9.74871 13.5491Z" fill="#1EDC82"/>
</g>
<defs>
<clipPath id="clip0_1_109">
<rect width="24" height="24" fill="white" transform="translate(24 24) rotate(-180)"/>
</clipPath>
</defs>
</svg>
